<?xml version="1.0" encoding="UTF-8"?>
<svg width="90px" fill="#ff6e34" viewBox="0 0 1058.4 1058.3" xml:space="preserve" xmlns="http://www.w3.org/2000/svg"><g transform="translate(-195.84 -673.02)"><path d="m717.07 1729.8c-1.4382-0.8384-9.2453-12.552-17.349-26.031l-14.734-24.506h-14.683l-18.717 20.653c-20.406 22.516-24.378 24.926-33.395 20.264-5.5178-2.8534-6.456-4.6651-15.233-29.412-3.89-10.968-7.7323-21.761-8.5387-23.986-1.087-2.9981-3.1971-4.5288-8.1585-5.918-3.6809-1.0305-7.6098-1.3131-8.731-0.6279-1.1213 0.6854-11.335 8.1646-22.698 16.621-17.508 13.03-21.531 15.375-26.374 15.375-5.864 0-12.699-4.6805-14.252-9.7601-0.41047-1.3431-2.5098-14.136-4.6646-28.428-2.1547-14.292-4.074-26.112-4.2649-26.266-1.7983-1.4499-10.602-5.2741-12.159-5.2817-1.0964 0-13.174 5.2346-26.838 11.645-27.754 13.019-30.926 13.424-38.132 4.8598l-4.0012-4.7552 1.0166-25.428c0.55918-13.985 1.3084-26.498 1.6649-27.806 0.35916-1.3184-1.7603-4.7118-4.7582-7.6177l-5.4063-5.24-26.43 6.5013c-14.536 3.5759-27.672 6.486-29.19 6.4674-5.0216-0.061-11.351-4.4211-13.319-9.1731-1.7253-4.1651-1.1772-7.7267 4.9666-32.278l6.9058-27.596-4.0321-5.4323-4.0322-5.4321-58.61 2.0016-4.9794-4.4492c-7.5657-6.7599-6.8336-11.195 6.5265-39.538l11.506-24.409-6.3049-12.977-12.418-1.7681c-40.385-5.7502-43.739-6.4779-47.589-10.328-8.1953-8.1953-6.5171-13.326 12.875-39.355 15.225-20.436 15.621-21.174 14.606-27.182-0.57396-3.3964-1.8396-6.9092-2.8128-7.8064-0.97322-0.8972-13.504-5.8668-27.847-11.044-25.387-9.1633-26.153-9.5672-28.934-15.26-4.418-9.0448-1.801-13.255 21.264-34.21 10.968-9.9648 19.884-19.006 19.814-20.093-0.0696-1.0863-0.24264-4.3496-0.38352-7.2519-0.24785-5.1091-1.0274-5.7411-24.518-19.864-24.491-14.725-27.893-17.91-27.893-26.112 0-6.171 5.6768-11.177 27.298-24.075 11.562-6.8968 21.8-13.306 22.75-14.242 0.95087-0.9359 2.1633-4.6128 2.6945-8.1708l0.96583-6.4691-20.701-18.764c-21.55-19.533-25.272-24.849-22.493-32.12 2.4622-6.4407 6.9397-8.9519 32.472-18.212 13.742-4.9838 25.534-9.9497 26.205-11.035 0.6705-1.0856 1.6479-4.507 2.1709-7.603 0.89783-5.3141 0.0435-6.8435-15.264-27.34-8.9184-11.941-16.295-23.228-16.392-25.082-0.35656-6.8086 0.4931-9.5876 4.0415-13.218 3.5698-3.6518 12.058-5.4898 52.995-11.475 6.3396-0.92679 7.3049-1.6397 10.15-7.496l3.1443-6.4718-11.576-24.539c-13.365-28.331-14.075-32.722-6.3967-39.582l4.9126-4.3895 25.525 0.97627c14.039 0.53657 26.926 1.2601 28.638 1.6071 3.4269 0.69485 11.46-7.9155 11.46-12.283 0-1.3486-2.7611-13.434-6.1359-26.857-3.3747-13.423-6.1358-25.886-6.1358-27.696 0-4.259 9.4623-13.721 13.721-13.721 1.8097 0 14.273 2.7611 27.696 6.1358 13.423 3.3748 25.518 6.1359 26.878 6.1359 1.3598 0 4.836-1.803 7.7251-4.0065 3.8045-2.9019 5.0671-4.9107 4.5798-7.2864-0.37048-1.8039-1.1123-14.766-1.6492-28.805l-0.97627-25.525 4.3895-4.9126c6.876-7.6956 11.229-6.9799 39.94 6.5665l24.897 11.747 5.7826-3.3111c3.1804-1.8211 5.9656-3.427 6.1891-3.5684 0.22349-0.14175 2.1416-11.924 4.2621-26.184 2.1206-14.26 4.1929-27.025 4.6052-28.368 1.1021-3.5901 7.1394-8.7414 10.668-9.1024 7.6389-0.78181 11.099 1.003 31.52 16.255 20.975 15.666 21.915 16.181 27.723 15.2 3.3063-0.55832 6.9288-1.9329 8.0499-3.054 1.1211-1.1212 5.689-12.475 10.151-25.231 8.485-24.258 11.689-30.004 18.085-32.436 7.4876-2.8468 12.655 0.73485 32.357 22.43l18.789 20.689 6.4292-0.9594c3.536-0.52788 7.195-1.7373 8.1309-2.6882 0.93601-0.9508 7.3446-11.188 14.241-22.75 12.897-21.621 17.904-27.298 24.075-27.298 8.2024 0 11.387 3.4014 26.112 27.893 14.123 23.49 14.755 24.27 19.864 24.518 2.9023 0.14088 6.1656 0.31307 7.2519 0.38352 1.0862 0.0696 10.128-8.8458 20.093-19.814 20.955-23.065 25.166-25.682 34.21-21.264 5.6838 2.7763 6.1142 3.587 15.355 28.934 5.2289 14.343 9.7157 26.556 9.9708 27.141 0.25481 0.5844 3.6852 1.9205 7.6224 2.9685l7.1587 1.9053 21.023-15.784c26.02-19.536 31.291-21.277 39.517-13.051 3.8496 3.8496 4.5774 7.2033 10.328 47.589l1.7682 12.418 6.5705 3.1922 6.5704 3.1922 24.351-11.543c28.263-13.397 32.675-14.132 39.433-6.569l4.4491 4.9794-2.0016 58.61 5.4322 4.0321 5.4322 4.0322 27.596-6.9058c24.551-6.1438 28.112-6.6919 32.278-4.9666 4.752 1.9683 9.1109 8.2975 9.173 13.319 0.017 1.5183-2.8915 14.654-6.4672 29.19l-6.5014 26.43 5.24 5.4063c2.9058 2.998 6.2993 5.1176 7.6177 4.7582 1.3078-0.35656 13.82-1.1057 27.806-1.6649l25.428-1.0166 4.7552 4.0012c8.5637 7.2059 8.1595 10.378-4.8599 38.132-6.41 13.664-11.65 25.742-11.645 26.838 0.01 1.5572 3.8318 10.361 5.2817 12.159 0.154 0.19045 11.974 2.1102 26.266 4.2649 14.292 2.1548 27.085 4.2539 28.428 4.6646 5.1316 1.5693 9.7602 8.3852 9.7602 14.373 0 5.0056-2.1889 8.7571-15.389 26.374-8.4639 11.296-15.943 21.456-16.621 22.577s-0.3949 5.0272 0.6278 8.6798l1.8594 6.6413 22.466 8.0385c29.829 10.673 32.173 11.826 34.941 17.179 4.7629 9.2103 2.3912 13.151-20.212 33.584l-20.641 18.659v14.675l24.536 14.752c13.495 8.1137 25.23 16.048 26.077 17.632 2.242 4.1893 1.886 12.644-0.6871 16.317-1.2256 1.7498-12.96 9.5795-26.078 17.4l-23.849 14.218v14.739l19.837 17.952c20.318 18.388 24.213 23.712 22.459 30.701-1.8385 7.3249-7.3253 10.572-33.353 19.742l-25.572 9.0084-1.7213 6.836c-2.0096 7.9808-2.9623 6.1385 17.047 32.966 7.4564 9.9973 13.985 19.88 14.507 21.96 1.1953 4.7627-1.9386 12.523-6.1526 15.236-1.7689 1.1387-15.296 3.8928-30.06 6.1204-22.956 3.4638-27.234 4.5352-29.533 7.3983-5.5371 6.8943-5.1 9.6077 4.9531 30.746 16.112 33.879 16.398 35.379 8.2822 43.495l-3.9015 3.9014-59.065-2.2033-4.0857 4.8556c-2.2471 2.6705-4.0857 5.8691-4.0857 7.1079 0 1.2386 2.7611 13.235 6.1359 26.658 3.3747 13.423 6.1359 26.215 6.1359 28.427 0 5.3025-7.6873 12.99-12.99 12.99-2.2121 0-15.004-2.7612-28.427-6.136-13.423-3.3747-25.419-6.1359-26.658-6.1359-1.2387 0-4.4417 1.8424-7.1178 4.0941l-4.8655 4.0942 1.0991 28.639c0.7897 20.565 0.6018 29.569-0.6661 31.938-1.962 3.666-9.2289 7.9365-13.487 7.9259-1.5183 0-13.705-5.181-27.082-11.505-13.377-6.3238-25.245-11.498-26.373-11.498-2.4662 0-12.964 6.0228-12.965 7.4379-1e-3 6.5765-8.3369 53.944-9.9167 56.355-2.7792 4.2416-10.525 7.3616-15.301 6.163-2.091-0.5252-13.567-8.2475-25.502-17.162l-21.7-16.207-14.446 3.4654-9.1052 25.609c-9.236 25.977-12.552 31.586-19.741 33.391-6.99 1.7543-12.294-2.1331-30.639-22.454l-17.911-19.841h-14.843l-14.218 23.849c-7.8202 13.117-15.65 24.852-17.4 26.078-3.6274 2.5408-12.734 2.8752-16.618 0.6105zm64.741-143.3c32.51-5.0144 63.329-13.672 93.642-26.305l16.177-6.7417 5.8556-37.187c6.9722-44.28 8.6493-48.6 21.385-55.1 8.1423-4.1555 16.031-3.8042 54.667 2.4349 38.305 6.1857 32.432 7.8484 50.981-14.434l12.131-14.572-171.24-1.5341-7.7314-4.0811c-14.473-7.64-25.692-23.461-32.665-46.068-1.7416-5.646-6.2737-24.284-10.071-41.417-3.7976-17.134-8.3984-35.984-10.224-41.89-7.7211-24.976-20.543-43.152-35.661-50.548-11.544-5.6481-25.252-6.8757-77.369-6.9289l-46.402-0.044v70.562h42.842c36.902 0 43.176 0.3339 45.252 2.4104 2.103 2.1031 2.4105 9.5244 2.4105 58.165 0 30.665-0.41918 56.847-0.93106 58.181-0.84094 2.1912-16.391 2.4266-160.3 2.4266-87.653 0-159.37 0.5713-159.37 1.2704 0 1.4226 22.729 29.145 26.248 32.015 1.7776 1.4494 9.388 0.7036 35.94-3.5238 18.527-2.9494 36.893-5.3958 40.815-5.4364 13.422-0.139 25.461 9.2094 28.671 22.263 0.8566 3.4837 3.7751 20.83 6.4853 38.547 2.7103 17.717 5.6942 33.031 6.6312 34.03 2.6608 2.838 33.582 15.016 53.292 20.99 19.6 5.94 51.598 12.476 71.896 14.686 19.192 2.0893 77.521 0.7809 96.64-2.1681zm-277.4-32.849c17.875-11.336 17.918-37.561 0.0783-49.955-12.929-8.9837-31.436-5.2582-40.977 8.2487-4.0132 5.6815-4.6019 7.8371-4.6019 16.85 0 8.474 0.6905 11.365 3.8349 16.06 9.1484 13.659 27.789 17.595 41.663 8.796zm471.89 1.5232c10.249-5.2311 15.662-14.569 15.662-27.02 0-28.332-37.136-40.235-53.792-17.243-10.496 14.489-5.9594 34.572 10.009 44.309 6.329 3.8596 20.514 3.8359 28.121-0.044zm-502.82-368.32v-125.79h-65.85l6.1846 12.655c5.4841 11.222 6.1182 13.655 5.5988 21.484-0.44179 6.6531-1.6988 10.433-5.1028 15.34-4.027 5.8052-8.2826 8.4194-39.239 24.104l-34.722 17.593-0.9694 6.951c-0.53309 3.8228-1.3841 17.65-1.8912 30.727-1.3578 35.015 2.1325 68.247 11.157 106.23l3.9182 16.49h120.92zm567.57 121.69c6.735-2.7434 16.245-11.821 19.998-19.088 4.4173-8.5542 6.1419-17.381 7.3084-37.405l1.0725-18.408 42.147-0.854 1.0055-4.0063c1.1382-4.5349-0.4279-66.714-1.8284-72.606-0.7566-3.1823-6.2927-6.5755-32.535-19.942-34.201-17.42-40.757-21.995-45.045-31.433-5.1671-11.374-4.2596-14.615 14.836-52.981l17.696-35.556-4.8632-8.66c-26.983-48.048-73.286-97.009-122.33-129.35-37.652-24.828-73.619-40.699-117.59-51.889l-23.01-5.8552-26.844 26.61c-32.714 32.428-38.325 35.648-54.456 31.247-4.9495-1.3502-11.484-6.9835-33.8-29.137-20.85-20.698-28.596-27.463-31.446-27.461-11.296 7e-3 -57.357 14.212-83.777 25.838-41.267 18.16-86.125 49.144-117.85 81.399l-10.697 10.876h209.62c142.43 0 213.46 0.53396 221.62 1.666 48.816 6.7774 94.516 40.234 114.17 83.583 8.013 17.672 11.135 31.874 11.105 50.507-0.0521 31.252-10.034 55.245-33.36 80.181-7.8775 8.4213-26.705 23.718-35.577 28.904-2.6834 1.5688-2.0293 2.649 8.0097 13.228 19.658 20.714 32.586 43.421 40.6 71.313 5.2218 18.173 8.3819 24.364 15.485 30.341 14.221 11.966 34.185 15.508 50.331 8.9315zm-253.04-178.46c25.76-4.8854 42.101-22.626 36.884-40.042-2.2734-7.5879-10.955-17.437-18.979-21.53-13.002-6.6329-22.543-7.3898-93.514-7.418l-67.111-0.026v70.562h67.285c38.782 0 70.738-0.6548 75.436-1.5457zm-431.29-25.965c7.512-4.0203 15.511-17.52 15.511-26.178 0-9.2953-8.1629-22.349-16.754-26.791-10.92-5.6468-23.93-4.0494-33.182 4.0739-9.8465 8.6455-12.816 18.947-9.0838 31.515 2.8627 9.6399 11.852 18.083 21.292 19.999 6.4906 1.3173 17.226 0.052 22.216-2.6184zm764.43 1.4697c2.7886-0.093 12.708-10.608 15.217-16.13 3.8668-8.5117 3.5457-15.677-1.1224-25.045-8.8837-17.827-31.151-22.201-46.119-9.0587-6.9406 6.094-9.7221 12.563-9.7221 22.612 0 11.412 5.3657 20.883 14.569 25.715 6.3703 3.3448 14.346 4.5526 20.712 3.1369 2.9529-0.6566 5.8625-1.2105 6.4659-1.2306zm-382.57-280.13c17.692-8.8163 22.101-31.265 9.0586-46.119-15.858-18.061-46.252-10.337-51.516 13.092-3.2115 14.293 5.3213 29.83 19.074 34.73 8.8615 3.1572 14.447 2.7504 23.384-1.7029z" stroke-width="1.534"/></g></svg>
